{"title":"Pacific Rim 2013 CAM Cropped Ac3 Xvid Worldwide7477","uid":8808947,"size":1452203142,"categoryP":"video","categoryS":"movies","magnet":"?xt=urn:btih:c6396e0cd9ac08d97d5b2590d772bde9b187f5a9&amp;dn=Pacific+Rim+2013+CAM+Cropped+Ac3+Xvid+Worldwide7477&amp;tr=udp%3A%2F%2Ftracker.openbittorrent.com%3A80&amp;tr=udp%3A%2F%2Fopen.demonii.com%3A1337&amp;tr=udp%3A%2F%2Ftracker.coppersurfer.tk%3A6969&amp;tr=udp%3A%2F%2Fexodus.desync.com%3A6969","seeders":1,"leechers":0,"uploader":"AliBaloch","files":-1,"time":1376411355,"description":"[img]http://i874.photobucket.com/albums/ab306/worldwide7477/Custom%20Covers/Pacific-Rim-2013-Custom-Movie-Cover-Worldwide7477_zps9a9fcfe5.png[/img]\n\nGeneral\nComplete name                            : C:UsersUserVideosPacific Rim 2013 HDCAM Cropped Ac3 Xvid Worldwide7477Pacific Rim 2013 HDCAM Cropped Ac3 Xvid Worldwide7477.avi\nFormat                                   : AVI\nFormat/Info                              : Audio Video Interleave\nFile size                                : 1.35 GiB\nDuration                                 : 2h 1mn\nOverall bit rate                         : 1 586 Kbps\n\nVideo\nID                                       : 0\nFormat                                   : MPEG-4 Visual\nFormat profile                           : Advanced Simple@L5\nCodec ID                                 : XVID\nDuration                                 : 2h 1mn\nBit rate                                 : 1 385 Kbps\nWidth                                    : 720 pixels\nHeight                                   : 326 pixels\nDisplay aspect ratio                     : 2.2:1\nFrame rate                               : 23.976 fps\nColor space                              : YUV\nChroma subsampling                       : 4:2:0\nBit depth                                : 8 bits\nScan type                                : Progressive\nCompression mode                         : Lossy\nBits/(Pixel*Frame)                       : 0.246\nStream size                              : 1.17 GiB (87%)\n\nAudio\nID                                       : 1\nFormat                                   : AC-3\nFormat/Info                              : Audio Coding 3\nMode extension                           : CM (complete main)\nFormat settings, Endianness              : Big\nCodec ID                                 : 2000\nDuration                                 : 2h 1mn\nBit rate mode                            : Constant\nBit rate                                 : 192 Kbps\nChannel(s)                               : 2 channels\nChannel positions                        : Front: L R\nSampling rate                            : 48.0 KHz\nBit depth                                : 16 bits\nCompression mode                         : Lossy\nStream size                              : 167 MiB (12%)\n &lt;a href=&quot;\nhttp://img812.imageshack.us/img812/4005/o773.png&quot; rel=&quot;nofollow&quot; target=&quot;_NEW&quot;&gt;\nhttp://img812.imageshack.us/img812/4005/o773.png&lt;/a&gt;\n &lt;a href=&quot;\nhttp://img20.imageshack.us/img20/4397/myql.png&quot; rel=&quot;nofollow&quot; target=&quot;_NEW&quot;&gt;\nhttp://img20.imageshack.us/img20/4397/myql.png&lt;/a&gt;\n &lt;a href=&quot;\nhttp://img818.imageshack.us/img818/1184/1uug.png&quot; rel=&quot;nofollow&quot; target=&quot;_NEW&quot;&gt;\nhttp://img818.imageshack.us/img818/1184/1uug.png&lt;/a&gt;\n &lt;a href=&quot;\nhttp://img208.imageshack.us/img208/2818/yecr.png&quot; rel=&quot;nofollow&quot; target=&quot;_NEW&quot;&gt;\nhttp://img208.imageshack.us/img208/2818/yecr.png&lt;/a&gt;\n &lt;a href=&quot;\nhttp://img266.imageshack.us/img266/2411/1bvl.png&quot; rel=&quot;nofollow&quot; target=&quot;_NEW&quot;&gt;\nhttp://img266.imageshack.us/img266/2411/1bvl.png&lt;/a&gt;\n","torrent":{"xt":"urn:btih:c6396e0cd9ac08d97d5b2590d772bde9b187f5a9","amp;dn":"Pacific+Rim+2013+CAM+Cropped+Ac3+Xvid+Worldwide7477","amp;tr":["udp%3A%2F%2Ftracker.openbittorrent.com%3A80","udp%3A%2F%2Fopen.demonii.com%3A1337","udp%3A%2F%2Ftracker.coppersurfer.tk%3A6969","udp%3A%2F%2Fexodus.desync.com%3A6969"],"infoHash":"c6396e0cd9ac08d97d5b2590d772bde9b187f5a9","infoHashBuffer":{"type":"Buffer","data":[198,57,110,12,217,172,8,217,125,91,37,144,215,114,189,233,177,135,245,169]},"announce":[],"urlList":[]}}